<?xml version="1.0" encoding="UTF-8" standalone="no"?>
<!-- Uploaded to: SVG Repo, www.svgrepo.com, Generator: SVG Repo Mixer Tools -->

<svg
   width="1084.8007"
   height="764.64917"
   viewBox="0 0 32.54402 22.939475"
   fill="none"
   version="1.1"
   id="svg2"
   sodipodi:docname="banner.svg"
   inkscape:version="1.4.3 (0d15f75042, 2025-12-25)"
   xmlns:inkscape="http://www.inkscape.org/namespaces/inkscape"
   xmlns:sodipodi="http://sodipodi.sourceforge.net/DTD/sodipodi-0.dtd"
   xmlns="http://www.w3.org/2000/svg"
   xmlns:svg="http://www.w3.org/2000/svg">
  <defs
     id="defs2">
    <rect
       x="51.361099"
       y="618.23547"
       width="1518.0059"
       height="285.33945"
       id="rect3" />
    <rect
       x="-218.76024"
       y="608.72412"
       width="1308.757"
       height="165.49689"
       id="rect2" />
  </defs>
  <sodipodi:namedview
     id="namedview2"
     pagecolor="#ffffff"
     bordercolor="#000000"
     borderopacity="0.25"
     inkscape:showpageshadow="2"
     inkscape:pageopacity="0.0"
     inkscape:pagecheckerboard="0"
     inkscape:deskcolor="#d1d1d1"
     showgrid="false"
     inkscape:zoom="0.52568967"
     inkscape:cx="421.35125"
     inkscape:cy="430.86257"
     inkscape:window-width="1920"
     inkscape:window-height="986"
     inkscape:window-x="0"
     inkscape:window-y="0"
     inkscape:window-maximized="1"
     inkscape:current-layer="text3"
     showguides="true" />
  <g
     id="g7"
     transform="translate(5.3405569,-2.2308954)">
    <path
       d="m 12.931453,11.730896 c 0.8284,0 1.5,-0.6716 1.5,-1.5 0,-0.8284006 -0.6716,-1.5000006 -1.5,-1.5000006 -0.8284,0 -1.5,0.6716 -1.5,1.5000006 0,0.8284 0.6716,1.5 1.5,1.5 z"
       fill="#212121"
       id="path1"
       style="fill:#c9211e;fill-opacity:1"
       inkscape:transform-center-x="11.068547"
       inkscape:transform-center-y="-8.788455" />
    <path
       d="m 0.931453,5.9808954 c 0,-2.07107 1.67893,-3.75 3.75,-3.75 h 12.5 c 2.0711,0 3.75,1.67893 3.75,3.75 v 8.5000006 c 0,2.0711 -1.6789,3.75 -3.75,3.75 h -12.5 c -2.07107,0 -3.75,-1.6789 -3.75,-3.75 z m 3.75,-0.75 c -0.41421,0 -0.75,0.33579 -0.75,0.75 v 8.5000006 c 0,0.4142 0.33579,0.75 0.75,0.75 0.41421,0 0.75,-0.3358 0.75,-0.75 V 5.9808954 c 0,-0.41421 -0.33579,-0.75 -0.75,-0.75 z m 5.5303,1.21967 c -0.2929,-0.29289 -0.7677,-0.29289 -1.0606,0 -0.29292,0.29289 -0.29292,0.76777 0,1.06066 l 1.1957,1.19567 c -0.264,0.4467 -0.4154,0.9676004 -0.4154,1.5240006 0,0.5564 0.1514,1.0773 0.4154,1.524 l -1.1957,1.1957 c -0.29292,0.2929 -0.29292,0.7677 0,1.0606 0.2929,0.2929 0.7677,0.2929 1.0606,0 l 1.1957,-1.1957 c 0.4467,0.264 0.9676,0.4154 1.524,0.4154 0.5564,0 1.0773,-0.1514 1.524,-0.4154 l 1.1957,1.1957 c 0.2929,0.2929 0.7677,0.2929 1.0606,0 0.2929,-0.2929 0.2929,-0.7677 0,-1.0606 l -1.1957,-1.1957 c 0.264,-0.4467 0.4154,-0.9676 0.4154,-1.524 0,-0.5564002 -0.1514,-1.0773006 -0.4154,-1.5240006 l 1.1957,-1.19567 c 0.2929,-0.29289 0.2929,-0.76777 0,-1.06066 -0.2929,-0.29289 -0.7677,-0.29289 -1.0606,0 l -1.1957,1.19569 c -0.4467,-0.26391 -0.9676,-0.41536 -1.524,-0.41536 -0.5564,0 -1.0773,0.15145 -1.524,0.41536 z"
       fill="#212121"
       id="path2"
       style="fill:#c9211e;fill-opacity:1"
       inkscape:transform-center-x="13.068547"
       inkscape:transform-center-y="-8.788455" />
  </g>
  <text
     xml:space="preserve"
     transform="matrix(0.03,0,0,0.03,-7.7279901,-2.2308954)"
     id="text2"
     style="writing-mode:lr-tb;direction:ltr;white-space:pre;shape-inside:url(#rect2);fill:#c9211e;fill-opacity:1" />
  <g
     id="text3"
     style="font-size:192px;font-family:'Noto Rashi Hebrew';-inkscape-font-specification:'Noto Rashi Hebrew';white-space:pre;fill:#c9211e"
     transform="matrix(0.03,0,0,0.03,-2.0304346,-2.2308954)"
     aria-label="Paper Vault">
    <path
       style="font-weight:bold;font-family:'Noto Sans';-inkscape-font-specification:'Noto Sans Bold';fill:#a6a6a6"
       d="m 110.68933,655.84436 q 26.496,0 39.168,11.136 12.672,10.944 12.672,31.104 0,12.096 -4.992,22.656 -4.992,10.56 -16.704,17.088 -11.52,6.528 -31.296,6.528 H 97.057328 v 48.576 h -29.376 v -137.088 z m -0.96,24 H 97.057328 v 40.32 h 9.792002 q 12.096,0 19.008,-4.8 7.104,-4.8 7.104,-16.32 0,-9.216 -5.76,-14.208 -5.568,-4.992 -17.472,-4.992 z m 121.72805,6.336 q 19.584,0 29.952,9.408 10.56,9.216 10.56,27.456 v 69.888 h -20.16 l -5.568,-14.208 h -0.768 q -6.912,8.448 -14.4,12.288 -7.296,3.84 -20.544,3.84 -13.824,0 -23.04,-8.064 -9.216,-8.064 -9.216,-24.768 0,-16.32 11.904,-24.576 11.904,-8.448 35.52,-9.408 l 17.472,-0.576 v -3.264 q 0,-9.408 -4.416,-13.056 -4.224,-3.84 -11.712,-3.84 -7.104,0 -14.592,2.304 -7.488,2.304 -14.784,5.568 l -8.448,-19.776 q 8.256,-4.224 18.816,-6.72 10.752,-2.496 23.424,-2.496 z m 0.768,58.752 q -13.824,0.384 -19.2,4.416 -5.184,4.032 -5.184,11.328 0,6.72 3.648,9.984 3.84,3.072 10.176,3.072 9.024,0 15.168,-5.376 6.336,-5.376 6.336,-15.36 v -8.64 z m 126.14418,-58.752 q 18.048,0 28.608,13.824 10.752,13.632 10.752,40.32 0,26.88 -11.328,40.704 -11.136,13.824 -28.8,13.824 -11.52,0 -18.432,-4.032 -6.72,-4.224 -10.56,-9.216 h -1.152 q 0.384,3.456 0.768,8.064 0.384,4.416 0.384,9.216 v 40.128 h -28.992 v -150.912 h 23.616 l 4.032,13.632 h 1.344 q 4.224,-6.336 11.136,-10.944 6.912,-4.608 18.624,-4.608 z m -9.6,23.04 q -11.136,0 -15.552,6.912 -4.224,6.912 -4.608,20.928 v 3.072 q 0,15.168 4.224,23.232 4.416,8.064 16.128,8.064 9.792,0 14.592,-8.064 4.8,-8.064 4.8,-23.424 0,-30.72 -19.584,-30.72 z m 116.928,-23.04 q 21.888,0 34.368,12.288 12.672,12.288 12.672,35.328 v 14.016 h -67.392 q 0.576,11.904 7.296,18.816 6.912,6.72 19.776,6.72 9.792,0 17.856,-1.92 8.064,-1.92 16.512,-5.76 v 21.696 q -7.68,3.84 -16.32,5.568 -8.64,1.92 -21.12,1.92 -15.552,0 -27.648,-5.76 -11.904,-5.952 -18.816,-17.856 -6.912,-11.904 -6.912,-29.952 0,-27.456 13.632,-41.28 13.824,-13.824 36.096,-13.824 z m 0.768,20.544 q -8.64,0 -14.208,5.568 -5.376,5.376 -6.144,16.128 h 39.552 q -0.192,-9.408 -4.992,-15.552 -4.608,-6.144 -14.208,-6.144 z m 127.10402,-20.544 q 2.88,0 6.144,0.384 3.264,0.384 5.376,0.768 l -2.88,27.072 q -2.112,-0.576 -4.992,-0.768 -2.88,-0.384 -6.912,-0.384 -5.952,0 -11.904,2.496 -5.952,2.496 -9.984,8.256 -3.84,5.76 -3.84,15.744 v 53.184 h -28.992 v -104.832 h 22.08 l 4.224,17.664 h 1.344 q 4.608,-8.064 12.48,-13.824 8.064,-5.76 17.856,-5.76 z"
       id="path3" />
    <path
       style="font-weight:bold;font-family:'Noto Sans';-inkscape-font-specification:'Noto Sans Bold'"
       d="m 782.11372,655.84436 -46.656,137.088 h -31.68 l -46.464,-137.088 h 29.376 l 25.728,81.6 q 0.768,2.112 2.112,7.872 1.536,5.568 3.072,11.904 1.536,6.144 2.112,10.368 0.576,-4.224 1.92,-10.368 1.536,-6.336 3.072,-11.904 1.536,-5.76 2.112,-7.872 l 25.92,-81.6 z m 57.02384,30.336 q 19.584,0 29.952,9.408 10.56,9.216 10.56,27.456 v 69.888 h -20.16 l -5.568,-14.208 h -0.768 q -6.912,8.448 -14.4,12.288 -7.296,3.84 -20.544,3.84 -13.824,0 -23.04,-8.064 -9.216,-8.064 -9.216,-24.768 0,-16.32 11.904,-24.576 11.904,-8.448 35.52,-9.408 l 17.472,-0.576 v -3.264 q 0,-9.408 -4.416,-13.056 -4.224,-3.84 -11.712,-3.84 -7.104,0 -14.592,2.304 -7.488,2.304 -14.784,5.568 l -8.448,-19.776 q 8.256,-4.224 18.816,-6.72 10.752,-2.496 23.424,-2.496 z m 0.768,58.752 q -13.824,0.384 -19.2,4.416 -5.184,4.032 -5.184,11.328 0,6.72 3.648,9.984 3.84,3.072 10.176,3.072 9.024,0 15.168,-5.376 6.336,-5.376 6.336,-15.36 v -8.64 z m 163.96814,-56.832 v 104.832 h -22.27196 l -3.648,-13.44 h -1.728 q -4.992,8.064 -13.632,11.712 -8.64,3.648 -18.624,3.648 -16.704,0 -27.072,-9.024 -10.176,-9.216 -10.176,-29.376 v -68.352 h 29.184 v 61.056 q 0,11.136 3.84,16.896 4.032,5.568 12.672,5.568 13.056,0 17.664,-8.832 4.8,-8.832 4.8,-25.536 v -49.152 z m 57.216,104.832 h -28.992 v -145.92 h 28.992 z m 73.344,-20.928 q 4.8,0 9.216,-0.96 4.416,-0.96 8.832,-2.304 v 21.312 q -4.608,1.92 -11.52,3.264 -6.72,1.536 -14.784,1.536 -9.408,0 -16.896,-3.072 -7.296,-3.072 -11.712,-10.56 -4.224,-7.68 -4.224,-21.12 v -50.496 h -13.632 v -12.096 l 15.744,-9.6 8.256,-22.08 h 18.24 v 22.272 h 29.376 v 21.504 h -29.376 v 50.496 q 0,5.952 3.456,9.024 3.456,2.88 9.024,2.88 z"
       id="path4" />
  </g>
</svg>
