<?xml version="1.0" encoding="UTF-8" standalone="no"?>
<!-- Uploaded to: SVG Repo, www.svgrepo.com, Generator: SVG Repo Mixer Tools -->

<svg
   width="1084.8007"
   height="764.64917"
   viewBox="0 0 32.54402 22.939475"
   fill="none"
   version="1.1"
   id="svg2"
   sodipodi:docname="banner.svg"
   inkscape:version="1.4.3 (0d15f75042, 2025-12-25)"
   xmlns:inkscape="http://www.inkscape.org/namespaces/inkscape"
   xmlns:sodipodi="http://sodipodi.sourceforge.net/DTD/sodipodi-0.dtd"
   xmlns="http://www.w3.org/2000/svg"
   xmlns:svg="http://www.w3.org/2000/svg">
  <defs
     id="defs2">
    <rect
       x="51.361099"
       y="618.23547"
       width="1518.0059"
       height="285.33945"
       id="rect3" />
    <rect
       x="-218.76024"
       y="608.72412"
       width="1308.757"
       height="165.49689"
       id="rect2" />
  </defs>
  <sodipodi:namedview
     id="namedview2"
     pagecolor="#ffffff"
     bordercolor="#000000"
     borderopacity="0.25"
     inkscape:showpageshadow="2"
     inkscape:pageopacity="0.0"
     inkscape:pagecheckerboard="0"
     inkscape:deskcolor="#d1d1d1"
     showgrid="false"
     inkscape:zoom="0.52568967"
     inkscape:cx="422.30238"
     inkscape:cy="430.86256"
     inkscape:window-width="1920"
     inkscape:window-height="986"
     inkscape:window-x="0"
     inkscape:window-y="0"
     inkscape:window-maximized="1"
     inkscape:current-layer="svg2"
     showguides="true" />
  <g
     id="g7"
     transform="translate(5.3405569,-2.2308954)">
    <path
       d="m 12.931453,11.730896 c 0.8284,0 1.5,-0.6716 1.5,-1.5 0,-0.8284006 -0.6716,-1.5000006 -1.5,-1.5000006 -0.8284,0 -1.5,0.6716 -1.5,1.5000006 0,0.8284 0.6716,1.5 1.5,1.5 z"
       fill="#212121"
       id="path1"
       style="fill:#c9211e;fill-opacity:1"
       inkscape:transform-center-x="11.068547"
       inkscape:transform-center-y="-8.788455" />
    <path
       d="m 0.931453,5.9808954 c 0,-2.07107 1.67893,-3.75 3.75,-3.75 h 12.5 c 2.0711,0 3.75,1.67893 3.75,3.75 v 8.5000006 c 0,2.0711 -1.6789,3.75 -3.75,3.75 h -12.5 c -2.07107,0 -3.75,-1.6789 -3.75,-3.75 z m 3.75,-0.75 c -0.41421,0 -0.75,0.33579 -0.75,0.75 v 8.5000006 c 0,0.4142 0.33579,0.75 0.75,0.75 0.41421,0 0.75,-0.3358 0.75,-0.75 V 5.9808954 c 0,-0.41421 -0.33579,-0.75 -0.75,-0.75 z m 5.5303,1.21967 c -0.2929,-0.29289 -0.7677,-0.29289 -1.0606,0 -0.29292,0.29289 -0.29292,0.76777 0,1.06066 l 1.1957,1.19567 c -0.264,0.4467 -0.4154,0.9676004 -0.4154,1.5240006 0,0.5564 0.1514,1.0773 0.4154,1.524 l -1.1957,1.1957 c -0.29292,0.2929 -0.29292,0.7677 0,1.0606 0.2929,0.2929 0.7677,0.2929 1.0606,0 l 1.1957,-1.1957 c 0.4467,0.264 0.9676,0.4154 1.524,0.4154 0.5564,0 1.0773,-0.1514 1.524,-0.4154 l 1.1957,1.1957 c 0.2929,0.2929 0.7677,0.2929 1.0606,0 0.2929,-0.2929 0.2929,-0.7677 0,-1.0606 l -1.1957,-1.1957 c 0.264,-0.4467 0.4154,-0.9676 0.4154,-1.524 0,-0.5564002 -0.1514,-1.0773006 -0.4154,-1.5240006 l 1.1957,-1.19567 c 0.2929,-0.29289 0.2929,-0.76777 0,-1.06066 -0.2929,-0.29289 -0.7677,-0.29289 -1.0606,0 l -1.1957,1.19569 c -0.4467,-0.26391 -0.9676,-0.41536 -1.524,-0.41536 -0.5564,0 -1.0773,0.15145 -1.524,0.41536 z"
       fill="#212121"
       id="path2"
       style="fill:#c9211e;fill-opacity:1"
       inkscape:transform-center-x="13.068547"
       inkscape:transform-center-y="-8.788455" />
  </g>
  <text
     xml:space="preserve"
     transform="matrix(0.03,0,0,0.03,-7.7279901,-2.2308954)"
     id="text2"
     style="writing-mode:lr-tb;direction:ltr;white-space:pre;shape-inside:url(#rect2);fill:#c9211e;fill-opacity:1" />
  <text
     xml:space="preserve"
     transform="matrix(0.03,0,0,0.03,-2.0304346,-2.2308954)"
     id="text3"
     style="font-style:normal;font-variant:normal;font-weight:normal;font-stretch:normal;font-size:192px;font-family:'Noto Rashi Hebrew';-inkscape-font-specification:'Noto Rashi Hebrew';writing-mode:lr-tb;direction:ltr;white-space:pre;shape-inside:url(#rect3);fill:#c9211e;fill-opacity:1"><tspan
       x="51.361328"
       y="792.93236"
       id="tspan4"><tspan
         style="font-weight:bold;font-family:'Noto Sans';-inkscape-font-specification:'Noto Sans Bold';fill:#a6a6a6"
         id="tspan1">Paper </tspan><tspan
         style="font-weight:bold;font-family:'Noto Sans';-inkscape-font-specification:'Noto Sans Bold'"
         id="tspan2">Vault</tspan></tspan></text>
</svg>
